# Blender v2.82 (sub 7) OBJ File: 'BlenderProject.blend'
# www.blender.org
mtllib screwable_screw1.mtl
o screw1_bolt5
v -0.000018 0.004371 0.004241
v 0.002778 0.003354 0.004241
v -0.000018 0.004371 -0.022826
v 0.002778 0.003354 -0.022826
v 0.004265 0.000777 0.004241
v 0.004265 0.000777 -0.022826
v 0.003748 -0.002153 0.004241
v 0.003748 -0.002153 -0.022826
v 0.003748 -0.002153 0.004241
v 0.001469 -0.004065 0.004241
v 0.003748 -0.002153 -0.022826
v 0.001469 -0.004065 -0.022826
v 0.001469 -0.004065 0.004241
v -0.001505 -0.004065 0.004241
v 0.001469 -0.004065 -0.022826
v -0.001505 -0.004065 -0.022826
v -0.003784 -0.002153 0.004241
v -0.003784 -0.002153 -0.022826
v -0.004301 0.000777 0.004241
v -0.004301 0.000777 -0.022826
v -0.000018 0.004371 -0.022826
v -0.002814 0.003354 -0.022826
v -0.000018 0.004371 0.004241
v -0.002814 0.003354 0.004241
v -0.004301 0.000777 -0.022826
v -0.004301 0.000777 0.004241
v -0.000018 0.004371 -0.022826
v 0.002778 0.003354 -0.022826
v -0.002814 0.003354 -0.022826
v 0.004265 0.000777 -0.022826
v -0.004301 0.000777 -0.022826
v 0.003748 -0.002153 -0.022826
v -0.003784 -0.002153 -0.022826
v -0.001505 -0.004065 -0.022826
v 0.001469 -0.004065 -0.022826
v -0.006124 -0.003503 0.003937
v -0.007069 0.000022 0.006148
v -0.007069 0.000022 0.003937
v -0.007069 0.000022 0.008359
v -0.006124 -0.003503 0.008359
v -0.003543 -0.006084 0.003937
v -0.003543 -0.006084 0.008359
v -0.006124 0.003547 0.006148
v -0.006124 0.003547 0.003937
v -0.000018 0.007073 0.008359
v 0.003507 0.006128 0.008359
v -0.000018 0.007073 0.003937
v 0.003507 0.006128 0.003937
v -0.003543 0.006128 0.003937
v -0.003543 0.006128 0.008359
v -0.006124 0.003547 0.006148
v -0.006124 0.003547 0.003937
v -0.006124 0.003547 0.008359
v 0.003507 0.006128 0.008359
v 0.006088 0.003547 0.008359
v 0.003507 0.006128 0.003937
v 0.006088 0.003547 0.003937
v 0.007033 0.000022 0.008359
v 0.007033 0.000022 0.006148
v 0.007033 0.000022 0.003937
v 0.006088 -0.003503 0.003937
v 0.006088 -0.003503 0.006148
v 0.006088 -0.003503 0.006148
v 0.003507 -0.006084 0.003937
v 0.006088 -0.003503 0.003937
v 0.003507 -0.006084 0.008359
v 0.006088 -0.003503 0.008359
v -0.000018 -0.007029 0.008359
v -0.000018 -0.007029 0.003937
v -0.003543 -0.006084 0.008359
v -0.003543 -0.006084 0.003937
v 0.007033 0.000022 0.006148
v -0.006124 0.003547 0.006148
v 0.006088 -0.003503 0.006148
v -0.007069 0.000022 0.006148
v -0.006124 -0.003503 0.003937
v -0.007069 0.000022 0.003937
v -0.003543 0.006128 0.003937
v -0.006124 0.003547 0.003937
v 0.006088 0.003547 0.003937
v 0.003507 0.006128 0.003937
v -0.000018 0.007073 0.003937
v 0.003507 -0.006084 0.003937
v -0.003543 -0.006084 0.003937
v -0.000018 -0.007029 0.003937
v 0.007033 0.000022 0.003937
v 0.006088 -0.003503 0.003937
v 0.007033 0.000022 0.008359
v -0.006124 0.003547 0.008359
v 0.007033 0.000022 0.006148
v -0.006124 0.003547 0.006148
v 0.006088 -0.003503 0.006148
v -0.007069 0.000022 0.006148
v 0.006088 -0.003503 0.008359
v -0.007069 0.000022 0.008359
v -0.000018 0.007073 0.008359
v -0.003543 0.006128 0.008359
v 0.003507 0.006128 0.008359
v 0.006088 0.003547 0.008359
v -0.006124 0.003547 0.008359
v 0.007033 0.000022 0.008359
v -0.007069 0.000022 0.008359
v -0.006124 -0.003503 0.008359
v 0.006088 -0.003503 0.008359
v -0.003543 -0.006084 0.008359
v 0.003507 -0.006084 0.008359
v -0.000018 -0.007029 0.008359
vt 0.950171 0.615229
vt 0.950363 0.641023
vt 0.054248 0.616362
vt 0.054441 0.642156
vt 0.950613 0.674695
vt 0.054692 0.675827
vt 0.950806 0.700489
vt 0.054884 0.701622
vt 0.950422 0.520960
vt 0.950171 0.554631
vt 0.054499 0.519828
vt 0.054248 0.553499
vt 0.950807 0.702754
vt 0.950614 0.728548
vt 0.054884 0.701622
vt 0.054692 0.727416
vt 0.950364 0.762219
vt 0.054441 0.761087
vt 0.950172 0.788014
vt 0.054248 0.786882
vt 0.950171 0.554631
vt 0.950422 0.588303
vt 0.054248 0.555763
vt 0.054499 0.589435
vt 0.950614 0.614097
vt 0.054692 0.615229
vt 0.223778 0.625961
vt 0.226860 0.626504
vt 0.221068 0.627527
vt 0.228873 0.628901
vt 0.219998 0.630469
vt 0.228874 0.632031
vt 0.221070 0.633409
vt 0.223781 0.634973
vt 0.226863 0.634429
vt 0.651174 0.541540
vt 0.649775 0.539246
vt 0.651167 0.539242
vt 0.648383 0.539251
vt 0.648390 0.541548
vt 0.651180 0.543530
vt 0.648396 0.543538
vt 0.649769 0.537257
vt 0.651161 0.537252
vt 0.656786 0.539251
vt 0.656780 0.537261
vt 0.659570 0.539242
vt 0.659564 0.537252
vt 0.659577 0.541540
vt 0.656793 0.541548
vt 0.658192 0.543534
vt 0.659583 0.543530
vt 0.656800 0.543538
vt 0.651193 0.543538
vt 0.651187 0.541548
vt 0.653977 0.543530
vt 0.653971 0.541540
vt 0.651180 0.539251
vt 0.652572 0.539246
vt 0.653964 0.539242
vt 0.653958 0.537252
vt 0.652566 0.537257
vt 0.655388 0.543534
vt 0.656774 0.541540
vt 0.656780 0.543530
vt 0.653990 0.541548
vt 0.653996 0.543538
vt 0.653983 0.539251
vt 0.656767 0.539242
vt 0.653977 0.537261
vt 0.656761 0.537252
vt 0.661881 0.537252
vt 0.661890 0.545827
vt 0.659583 0.537255
vt 0.659592 0.545830
vt 0.656439 0.534114
vt 0.655290 0.536104
vt 0.651003 0.537252
vt 0.653301 0.537252
vt 0.647864 0.531816
vt 0.647864 0.534114
vt 0.649013 0.536104
vt 0.653301 0.528677
vt 0.656439 0.531816
vt 0.655290 0.529826
vt 0.649013 0.529826
vt 0.651003 0.528677
vt 0.661890 0.544679
vt 0.661913 0.537252
vt 0.663282 0.544683
vt 0.663305 0.537257
vt 0.664142 0.528682
vt 0.664120 0.536108
vt 0.662750 0.528677
vt 0.662728 0.536103
vt 0.659583 0.534110
vt 0.658437 0.536101
vt 0.659581 0.531813
vt 0.658430 0.529824
vt 0.656448 0.537252
vt 0.656439 0.528677
vt 0.662728 0.537252
vt 0.660737 0.536106
vt 0.662719 0.528677
vt 0.659586 0.534117
vt 0.660730 0.529828
vt 0.659583 0.531819
vn 0.0000 1.0000 -0.0000
vn 0.6428 0.7660 0.0000
vn -0.0000 0.7704 -0.6376
vn 0.4952 0.5901 -0.6376
vn 0.9848 0.1735 0.0000
vn 0.7587 0.1338 -0.6376
vn 0.8660 -0.5000 -0.0000
vn 0.6672 -0.3852 -0.6376
vn 0.3420 -0.9397 -0.0000
vn 0.6672 -0.3851 -0.6376
vn 0.2635 -0.7239 -0.6377
vn -0.3420 -0.9397 -0.0000
vn 0.2635 -0.7239 -0.6376
vn -0.2634 -0.7240 -0.6376
vn -0.8660 -0.5001 -0.0000
vn -0.6672 -0.3852 -0.6376
vn -0.9848 0.1736 -0.0000
vn -0.7587 0.1338 -0.6376
vn -0.4952 0.5901 -0.6376
vn -0.6428 0.7660 0.0000
vn -0.7586 0.1338 -0.6376
vn 0.4951 0.5901 -0.6376
vn -0.4951 0.5901 -0.6376
vn 0.7586 0.1338 -0.6376
vn 0.6671 -0.3852 -0.6376
vn -0.6671 -0.3852 -0.6376
vn -0.2635 -0.7239 -0.6376
vn -0.6557 -0.3785 -0.6532
vn -0.9960 -0.0890 -0.0000
vn -0.7572 -0.0001 -0.6532
vn -0.9659 -0.2589 -0.0000
vn -0.3786 -0.6557 -0.6532
vn -0.5000 -0.8660 -0.0000
vn -0.8181 0.5751 -0.0000
vn -0.6557 0.3786 -0.6532
vn 0.5000 0.8660 -0.0000
vn 0.0000 0.7572 -0.6532
vn 0.3786 0.6557 -0.6532
vn -0.3785 0.6557 -0.6532
vn -0.5001 0.8660 0.0000
vn -0.7071 0.7071 0.0000
vn 0.8660 0.5001 0.0000
vn 0.6557 0.3785 -0.6532
vn 0.9659 0.2589 0.0000
vn 0.9960 0.0890 0.0000
vn 0.7571 -0.0000 -0.6532
vn 0.6557 -0.3786 -0.6532
vn 0.8181 -0.5751 -0.0000
vn 0.3784 -0.6558 -0.6532
vn 0.5001 -0.8660 -0.0000
vn 0.7071 -0.7071 0.0000
vn -0.0000 -1.0000 -0.0000
vn -0.0000 -0.7572 -0.6532
vn 0.0000 -0.0000 1.0000
vn -0.6557 -0.3786 -0.6532
vn -0.7572 -0.0000 -0.6532
vn -0.3786 0.6557 -0.6532
vn 0.6557 0.3786 -0.6532
vn 0.3786 -0.6557 -0.6532
vn 0.7572 0.0000 -0.6532
vn -0.2588 -0.9659 -0.0000
vn 0.2588 0.9659 0.0000
usemtl Screw-Material
s 1
f 1/1/1 2/2/2 3/3/3
f 2/2/2 4/4/4 3/3/3
f 2/2/2 5/5/5 4/4/4
f 5/5/5 6/6/6 4/4/4
f 5/5/5 7/7/7 6/6/6
f 7/7/7 8/8/8 6/6/6
f 9/9/7 10/10/9 11/11/10
f 10/10/9 12/12/11 11/11/10
f 13/13/9 14/14/12 15/15/13
f 14/14/12 16/16/14 15/15/13
f 14/14/12 17/17/15 16/16/14
f 17/17/15 18/18/16 16/16/14
f 17/17/15 19/19/17 18/18/16
f 19/19/17 20/20/18 18/18/16
f 21/21/3 22/22/19 23/23/1
f 22/22/19 24/24/20 23/23/1
f 24/24/20 22/22/19 25/25/21
f 26/26/17 24/24/20 25/25/21
f 27/27/3 28/28/22 29/29/23
f 28/28/22 30/30/24 29/29/23
f 30/30/24 31/31/21 29/29/23
f 32/32/25 31/31/21 30/30/24
f 33/33/26 31/31/21 32/32/25
f 34/34/27 33/33/26 32/32/25
f 35/35/13 34/34/27 32/32/25
f 36/36/28 37/37/29 38/38/30
f 39/39/31 37/37/29 36/36/28
f 40/40/15 39/39/31 36/36/28
f 40/40/15 36/36/28 41/41/32
f 42/42/33 40/40/15 41/41/32
f 37/37/29 43/43/34 38/38/30
f 43/43/34 44/44/35 38/38/30
f 45/45/1 46/46/36 47/47/37
f 46/46/36 48/48/38 47/47/37
f 45/45/1 47/47/37 49/49/39
f 50/50/40 45/45/1 49/49/39
f 50/50/40 49/49/39 51/51/34
f 51/51/34 49/49/39 52/52/35
f 53/53/41 50/50/40 51/51/34
f 54/54/36 55/55/42 56/56/38
f 55/55/42 57/57/43 56/56/38
f 55/55/42 58/58/44 57/57/43
f 58/58/44 59/59/45 57/57/43
f 57/57/43 59/59/45 60/60/46
f 61/61/47 60/60/46 59/59/45
f 62/62/48 61/61/47 59/59/45
f 63/63/48 64/64/49 65/65/47
f 66/66/50 64/64/49 63/63/48
f 67/67/51 66/66/50 63/63/48
f 66/66/50 68/68/52 64/64/49
f 68/68/52 69/69/53 64/64/49
f 68/68/52 70/70/33 69/69/53
f 70/70/33 71/71/32 69/69/53
f 72/72/54 73/73/54 74/74/54
f 73/73/54 75/75/54 74/74/54
f 76/76/55 77/77/56 78/78/57
f 77/77/56 79/79/35 78/78/57
f 76/76/55 78/78/57 80/80/58
f 80/80/58 78/78/57 81/81/38
f 81/81/38 78/78/57 82/82/37
f 83/83/59 76/76/55 80/80/58
f 84/84/32 76/76/55 83/83/59
f 85/85/53 84/84/32 83/83/59
f 80/80/58 86/86/60 83/83/59
f 86/86/60 87/87/47 83/83/59
f 88/88/61 89/89/61 90/90/61
f 89/89/61 91/91/61 90/90/61
f 92/92/62 93/93/62 94/94/62
f 93/93/62 95/95/62 94/94/62
f 96/96/54 97/97/54 98/98/54
f 97/97/54 99/99/54 98/98/54
f 100/100/54 99/99/54 97/97/54
f 101/101/54 99/99/54 100/100/54
f 102/102/54 103/103/54 104/104/54
f 103/103/54 105/105/54 104/104/54
f 105/105/54 106/106/54 104/104/54
f 107/107/54 106/106/54 105/105/54
