# Blender v2.82 (sub 7) OBJ File: 'BlenderProject.blend'
# www.blender.org
mtllib screwable_screw3.mtl
o screw3_bolt3
v -0.000027 0.004382 0.019775
v 0.002769 0.003365 0.019775
v -0.000027 0.004382 -0.040481
v 0.002769 0.003365 -0.040481
v 0.004256 0.000788 0.019775
v 0.004256 0.000788 -0.040481
v 0.003739 -0.002142 0.019775
v 0.003739 -0.002142 -0.040481
v 0.003739 -0.002142 0.019775
v 0.001460 -0.004054 0.019775
v 0.003739 -0.002142 -0.040481
v 0.001460 -0.004054 -0.040481
v 0.001460 -0.004054 0.019775
v -0.001514 -0.004054 0.019775
v 0.001460 -0.004054 -0.040481
v -0.001514 -0.004054 -0.040481
v -0.003793 -0.002142 0.019775
v -0.003793 -0.002142 -0.040481
v -0.004310 0.000788 0.019775
v -0.004310 0.000788 -0.040481
v -0.000027 0.004382 -0.040481
v -0.002823 0.003365 -0.040481
v -0.000027 0.004382 0.019775
v -0.002823 0.003365 0.019775
v -0.004310 0.000788 -0.040481
v -0.004310 0.000788 0.019775
v -0.000027 0.007653 0.021053
v 0.006573 0.003843 0.021053
v -0.000027 0.007653 0.014141
v 0.006573 0.003843 0.014141
v 0.006573 0.003843 0.021053
v 0.006573 -0.003777 0.021053
v 0.006573 0.003843 0.014141
v 0.006573 -0.003777 0.014141
v 0.006573 -0.003777 0.021053
v -0.000027 -0.007587 0.021053
v 0.006573 -0.003777 0.014141
v -0.000027 -0.007587 0.014141
v -0.000027 -0.007587 0.021053
v -0.006627 -0.003777 0.021053
v -0.000027 -0.007587 0.014141
v -0.006627 -0.003777 0.014141
v -0.000027 0.007653 0.021053
v -0.006627 0.003843 0.021053
v 0.006573 0.003843 0.021053
v -0.006627 -0.003777 0.021053
v 0.006573 -0.003777 0.021053
v -0.000027 -0.007587 0.021053
v -0.006627 0.003843 0.021053
v -0.000027 0.007653 0.021053
v -0.006627 0.003843 0.014141
v -0.000027 0.007653 0.014141
v -0.006627 -0.003777 0.021053
v -0.006627 0.003843 0.021053
v -0.006627 -0.003777 0.014141
v -0.006627 0.003843 0.014141
v -0.000027 0.007653 0.014141
v 0.006573 0.003843 0.014141
v -0.006627 0.003843 0.014141
v 0.006573 -0.003777 0.014141
v -0.006627 -0.003777 0.014141
v -0.000027 -0.007587 0.014141
v -0.000027 0.004382 -0.040481
v 0.002769 0.003365 -0.040481
v -0.002823 0.003365 -0.040481
v 0.004256 0.000788 -0.040481
v -0.004310 0.000788 -0.040481
v 0.003739 -0.002142 -0.040481
v -0.003793 -0.002142 -0.040481
v -0.001514 -0.004054 -0.040481
v 0.001460 -0.004054 -0.040481
vt 0.973902 0.342380
vt 0.974018 0.361407
vt 0.431168 0.343215
vt 0.431285 0.362242
vt 0.974170 0.386245
vt 0.431437 0.387080
vt 0.974286 0.405271
vt 0.431553 0.406107
vt 0.974054 0.272842
vt 0.973902 0.297680
vt 0.431320 0.272007
vt 0.431168 0.296845
vt 0.974287 0.406942
vt 0.974170 0.425969
vt 0.431553 0.406107
vt 0.431437 0.425134
vt 0.974019 0.450806
vt 0.431285 0.449971
vt 0.973903 0.469834
vt 0.431168 0.468998
vt 0.973902 0.297680
vt 0.974054 0.322518
vt 0.431168 0.298515
vt 0.431320 0.323353
vt 0.974170 0.341545
vt 0.431437 0.342380
vt 0.344672 0.311491
vt 0.344574 0.258861
vt 0.402357 0.311198
vt 0.402259 0.258568
vt 0.286890 0.469384
vt 0.286792 0.416753
vt 0.344574 0.469092
vt 0.344477 0.416461
vt 0.286792 0.416753
vt 0.286597 0.311491
vt 0.344477 0.416461
vt 0.344282 0.311198
vt 0.286597 0.311491
vt 0.286500 0.258861
vt 0.344282 0.311198
vt 0.344184 0.258568
vt 0.084792 0.475868
vt 0.023038 0.358948
vt 0.213574 0.479017
vt 0.090066 0.245175
vt 0.280602 0.365245
vt 0.218848 0.248325
vt 0.344867 0.416753
vt 0.344672 0.311491
vt 0.402552 0.416461
vt 0.402357 0.311198
vt 0.344965 0.469384
vt 0.344867 0.416753
vt 0.402649 0.469092
vt 0.402552 0.416461
vt 0.084792 0.475868
vt 0.213574 0.479017
vt 0.023038 0.358948
vt 0.280602 0.365245
vt 0.090066 0.245175
vt 0.218848 0.248325
vt 0.137722 0.280265
vt 0.193567 0.290093
vt 0.088625 0.308633
vt 0.230030 0.333517
vt 0.069249 0.361924
vt 0.230050 0.390221
vt 0.088661 0.415201
vt 0.137778 0.443536
vt 0.193616 0.433670
vn 0.0000 1.0000 -0.0000
vn 0.6428 0.7660 0.0000
vn -0.0000 0.7704 -0.6376
vn 0.4953 0.5900 -0.6376
vn 0.9848 0.1735 0.0000
vn 0.7586 0.1339 -0.6376
vn 0.8660 -0.5000 -0.0000
vn 0.6672 -0.3852 -0.6376
vn 0.3420 -0.9397 -0.0000
vn 0.6672 -0.3851 -0.6376
vn 0.2635 -0.7239 -0.6377
vn -0.3420 -0.9397 -0.0000
vn 0.2635 -0.7239 -0.6376
vn -0.2635 -0.7239 -0.6376
vn -0.8660 -0.5001 -0.0000
vn -0.6672 -0.3852 -0.6376
vn -0.9848 0.1736 -0.0000
vn -0.7587 0.1338 -0.6376
vn -0.4953 0.5901 -0.6376
vn -0.6428 0.7660 0.0000
vn -0.7586 0.1338 -0.6376
vn 0.4999 0.8661 0.0000
vn 1.0000 0.0000 0.0000
vn 0.4999 -0.8661 0.0000
vn -0.4999 -0.8661 0.0000
vn 0.0000 -0.0000 1.0000
vn -0.4999 0.8661 0.0000
vn -1.0000 0.0000 0.0000
vn 0.0000 0.0000 -1.0000
vn 0.4951 0.5901 -0.6376
vn -0.4951 0.5901 -0.6376
vn 0.7586 0.1338 -0.6376
vn 0.6671 -0.3852 -0.6376
vn -0.6671 -0.3852 -0.6376
usemtl Screw-Material
s 1
f 1/1/1 2/2/2 3/3/3
f 2/2/2 4/4/4 3/3/3
f 2/2/2 5/5/5 4/4/4
f 5/5/5 6/6/6 4/4/4
f 5/5/5 7/7/7 6/6/6
f 7/7/7 8/8/8 6/6/6
f 9/9/7 10/10/9 11/11/10
f 10/10/9 12/12/11 11/11/10
f 13/13/9 14/14/12 15/15/13
f 14/14/12 16/16/14 15/15/13
f 14/14/12 17/17/15 16/16/14
f 17/17/15 18/18/16 16/16/14
f 17/17/15 19/19/17 18/18/16
f 19/19/17 20/20/18 18/18/16
f 21/21/3 22/22/19 23/23/1
f 22/22/19 24/24/20 23/23/1
f 24/24/20 22/22/19 25/25/21
f 26/26/17 24/24/20 25/25/21
f 27/27/22 28/28/22 29/29/22
f 28/28/22 30/30/22 29/29/22
f 31/31/23 32/32/23 33/33/23
f 32/32/23 34/34/23 33/33/23
f 35/35/24 36/36/24 37/37/24
f 36/36/24 38/38/24 37/37/24
f 39/39/25 40/40/25 41/41/25
f 40/40/25 42/42/25 41/41/25
f 43/43/26 44/44/26 45/45/26
f 44/44/26 46/46/26 45/45/26
f 46/46/26 47/47/26 45/45/26
f 48/48/26 47/47/26 46/46/26
f 49/49/27 50/50/27 51/51/27
f 50/50/27 52/52/27 51/51/27
f 53/53/28 54/54/28 55/55/28
f 54/54/28 56/56/28 55/55/28
f 57/57/29 58/58/29 59/59/29
f 58/58/29 60/60/29 59/59/29
f 60/60/29 61/61/29 59/59/29
f 62/62/29 61/61/29 60/60/29
f 63/63/3 64/64/30 65/65/31
f 64/64/30 66/66/32 65/65/31
f 66/66/32 67/67/21 65/65/31
f 68/68/33 67/67/21 66/66/32
f 69/69/34 67/67/21 68/68/33
f 70/70/14 69/69/34 68/68/33
f 71/71/13 70/70/14 68/68/33
