# Blender v2.82 (sub 7) OBJ File: 'Turbocharger & ECU mod.blend'
# www.blender.org
mtllib bolt_modell.mtl
o bolt_bolt2
v -0.000110 0.002973 -0.007620
v 0.006490 0.002973 -0.003810
v -0.000110 -0.002828 -0.007620
v 0.006490 -0.002828 -0.003810
v 0.006490 0.002973 -0.003810
v 0.006490 0.002973 0.003810
v 0.006490 -0.002828 -0.003810
v 0.006490 -0.002828 0.003810
v 0.006490 0.002973 0.003810
v -0.000110 0.002973 0.007620
v 0.006490 -0.002828 0.003810
v -0.000110 -0.002828 0.007620
v -0.000110 0.002973 0.007620
v -0.006710 0.002973 0.003810
v -0.000110 -0.002828 0.007620
v -0.006710 -0.002828 0.003810
v -0.006710 0.002973 0.003810
v -0.000110 0.002973 0.007620
v -0.002478 0.003654 0.004101
v -0.004246 0.003654 0.002388
v -0.004846 0.003654 0.000000
v -0.006710 0.002973 -0.003810
v -0.004246 0.003654 -0.002388
v -0.002478 0.003654 -0.004101
v -0.000110 0.002973 -0.007620
v -0.000110 0.003654 -0.004776
v 0.002258 0.003654 -0.004101
v 0.006490 0.002973 -0.003810
v 0.004026 0.003654 -0.002388
v 0.004626 0.003654 0.000000
v 0.006490 0.002973 0.003810
v 0.004026 0.003654 0.002388
v 0.002258 0.003654 0.004101
v -0.000110 0.003654 0.004776
v -0.006710 0.002973 -0.003810
v -0.000110 0.002973 -0.007620
v -0.006710 -0.002828 -0.003810
v -0.000110 -0.002828 -0.007620
v -0.006710 0.002973 0.003810
v -0.006710 0.002973 -0.003810
v -0.006710 -0.002828 0.003810
v -0.006710 -0.002828 -0.003810
v -0.000110 -0.003760 -0.004776
v -0.000110 -0.002828 -0.007620
v 0.002258 -0.003760 -0.004101
v 0.006490 -0.002828 -0.003810
v 0.004026 -0.003760 -0.002388
v 0.004626 -0.003760 -0.000000
v 0.006490 -0.002828 0.003810
v 0.004026 -0.003760 0.002388
v 0.002258 -0.003760 0.004101
v -0.000110 -0.002828 0.007620
v -0.000110 -0.003760 0.004776
v -0.002478 -0.003760 0.004101
v -0.004246 -0.003760 0.002388
v -0.006710 -0.002828 0.003810
v -0.004846 -0.003760 -0.000000
v -0.006710 -0.002828 -0.003810
v -0.002478 -0.003760 -0.004101
v -0.004246 -0.003760 -0.002388
v -0.002478 -0.003760 0.004101
v -0.004246 -0.003760 0.002388
v -0.002478 0.003654 0.004101
v -0.004246 0.003654 0.002388
v -0.004846 -0.003760 -0.000000
v -0.004846 0.003654 0.000000
v -0.004246 -0.003760 -0.002388
v -0.004246 0.003654 -0.002388
v -0.002478 -0.003760 -0.004101
v -0.002478 0.003654 -0.004101
v -0.000110 -0.003760 -0.004776
v -0.000110 0.003654 -0.004776
v 0.002258 -0.003760 -0.004101
v 0.002258 0.003654 -0.004101
v 0.004026 -0.003760 -0.002388
v 0.004026 0.003654 -0.002388
v 0.004626 -0.003760 -0.000000
v 0.004626 0.003654 0.000000
v -0.000110 0.003654 0.004776
v -0.000110 -0.003760 0.004776
v 0.002258 0.003654 0.004101
v 0.002258 -0.003760 0.004101
v 0.004026 0.003654 0.002388
v 0.004026 -0.003760 0.002388
v 0.004626 0.003654 0.000000
v 0.004626 -0.003760 -0.000000
vt 0.350304 0.309649
vt 0.350204 0.255625
vt 0.409516 0.309348
vt 0.409416 0.255325
vt 0.290993 0.471721
vt 0.290893 0.417697
vt 0.350204 0.471420
vt 0.350104 0.417396
vt 0.290893 0.417697
vt 0.290692 0.309649
vt 0.350104 0.417396
vt 0.349904 0.309348
vt 0.290692 0.309649
vt 0.290592 0.255625
vt 0.349904 0.309348
vt 0.349804 0.255325
vt 0.088960 0.241578
vt 0.221150 0.244810
vt 0.153766 0.299579
vt 0.119147 0.298732
vt 0.101129 0.329317
vt 0.020158 0.358361
vt 0.083111 0.359901
vt 0.099711 0.391331
vt 0.083547 0.478376
vt 0.116312 0.422761
vt 0.150931 0.423608
vt 0.215737 0.481609
vt 0.185550 0.424454
vt 0.203568 0.393871
vt 0.284539 0.364826
vt 0.221586 0.363286
vt 0.204985 0.331856
vt 0.188385 0.300425
vt 0.350505 0.417697
vt 0.350304 0.309649
vt 0.409716 0.417396
vt 0.409516 0.309348
vt 0.350605 0.471721
vt 0.350505 0.417697
vt 0.409816 0.471420
vt 0.409716 0.417396
vt 0.116312 0.422761
vt 0.083547 0.478376
vt 0.150931 0.423608
vt 0.215737 0.481609
vt 0.185550 0.424454
vt 0.203568 0.393870
vt 0.284539 0.364826
vt 0.221586 0.363286
vt 0.204985 0.331856
vt 0.221150 0.244810
vt 0.188385 0.300426
vt 0.153766 0.299579
vt 0.119147 0.298733
vt 0.088960 0.241578
vt 0.101129 0.329317
vt 0.020158 0.358361
vt 0.099711 0.391331
vt 0.083111 0.359901
vt 0.209838 0.697653
vt 0.209877 0.674934
vt 0.719881 0.697654
vt 0.719877 0.674934
vt 0.209838 0.652215
vt 0.719881 0.652215
vt 0.209877 0.629495
vt 0.719877 0.629495
vt 0.209838 0.606776
vt 0.719881 0.606776
vt 0.209877 0.584056
vt 0.719877 0.584056
vt 0.209838 0.561337
vt 0.719879 0.561337
vt 0.209877 0.538617
vt 0.719877 0.538617
vt 0.209838 0.515898
vt 0.719877 0.515898
vt 0.719877 0.720373
vt 0.209877 0.720373
vt 0.719879 0.743093
vt 0.209838 0.743092
vt 0.719877 0.765812
vt 0.209877 0.765812
vt 0.719881 0.788531
vt 0.209840 0.788531
vn 0.4999 0.0000 -0.8661
vn 1.0000 0.0000 0.0000
vn 0.4999 -0.0000 0.8661
vn -0.4999 -0.0000 0.8661
vn -0.2284 0.9646 0.1319
vn 0.0000 0.9646 0.2638
vn -0.1506 0.9536 0.2608
vn -0.2016 0.9725 0.1164
vn -0.3007 0.9537 0.0000
vn -0.2284 0.9646 -0.1319
vn -0.2016 0.9725 -0.1164
vn -0.1506 0.9536 -0.2608
vn 0.0000 0.9646 -0.2638
vn 0.0000 0.9725 -0.2329
vn 0.1506 0.9536 -0.2608
vn 0.2284 0.9646 -0.1319
vn 0.2016 0.9725 -0.1164
vn 0.3007 0.9537 0.0000
vn 0.2284 0.9646 0.1319
vn 0.2016 0.9725 0.1164
vn 0.1506 0.9536 0.2608
vn 0.0000 0.9725 0.2329
vn -0.4999 0.0000 -0.8661
vn -1.0000 0.0000 0.0000
vn 0.0000 -0.9503 -0.3114
vn 0.0000 -0.9363 -0.3512
vn 0.1971 -0.9190 -0.3415
vn 0.3041 -0.9363 -0.1756
vn 0.2696 -0.9503 -0.1557
vn 0.3945 -0.9189 -0.0000
vn 0.3041 -0.9363 0.1756
vn 0.2696 -0.9503 0.1557
vn 0.1971 -0.9190 0.3415
vn -0.0002 -0.9404 0.3400
vn 0.0000 -0.9503 0.3114
vn -0.1971 -0.9215 0.3346
vn -0.2713 -0.9390 0.2115
vn -0.3048 -0.9324 0.1940
vn -0.3945 -0.9189 -0.0000
vn -0.3041 -0.9363 -0.1756
vn -0.1971 -0.9190 -0.3415
vn -0.2696 -0.9503 -0.1557
vn 0.5000 0.0000 -0.8660
vn 0.8660 0.0000 -0.5001
vn 0.8660 -0.0000 0.5001
vn 0.5000 -0.0000 0.8660
vn -0.0000 -0.0000 1.0000
vn -0.5000 -0.0000 0.8660
vn -0.8660 -0.0000 0.5001
vn -0.0000 0.0000 -1.0000
vn -0.5000 0.0000 -0.8660
vn -0.8660 0.0000 -0.5001
usemtl bolt-texture
s 1
f 1/1/1 2/2/1 3/3/1
f 2/2/1 4/4/1 3/3/1
f 5/5/2 6/6/2 7/7/2
f 6/6/2 8/8/2 7/7/2
f 9/9/3 10/10/3 11/11/3
f 10/10/3 12/12/3 11/11/3
f 13/13/4 14/14/4 15/15/4
f 14/14/4 16/16/4 15/15/4
f 17/17/5 18/18/6 19/19/7
f 20/20/8 17/17/5 19/19/7
f 21/21/9 17/17/5 20/20/8
f 22/22/10 17/17/5 21/21/9
f 23/23/11 22/22/10 21/21/9
f 24/24/12 22/22/10 23/23/11
f 25/25/13 22/22/10 24/24/12
f 26/26/14 25/25/13 24/24/12
f 27/27/15 25/25/13 26/26/14
f 28/28/16 25/25/13 27/27/15
f 29/29/17 28/28/16 27/27/15
f 30/30/18 28/28/16 29/29/17
f 31/31/19 28/28/16 30/30/18
f 32/32/20 31/31/19 30/30/18
f 18/18/6 31/31/19 33/33/21
f 33/33/21 31/31/19 32/32/20
f 34/34/22 18/18/6 33/33/21
f 19/19/7 18/18/6 34/34/22
f 35/35/23 36/36/23 37/37/23
f 36/36/23 38/38/23 37/37/23
f 39/39/24 40/40/24 41/41/24
f 40/40/24 42/42/24 41/41/24
f 43/43/25 44/44/26 45/45/27
f 44/44/26 46/46/28 45/45/27
f 45/45/27 46/46/28 47/47/29
f 47/47/29 46/46/28 48/48/30
f 46/46/28 49/49/31 48/48/30
f 48/48/30 49/49/31 50/50/32
f 50/50/32 49/49/31 51/51/33
f 49/49/31 52/52/34 51/51/33
f 51/51/33 52/52/34 53/53/35
f 53/53/35 52/52/34 54/54/36
f 54/54/36 52/52/34 55/55/37
f 52/52/34 56/56/38 55/55/37
f 55/55/37 56/56/38 57/57/39
f 56/56/38 58/58/40 57/57/39
f 58/58/40 44/44/26 59/59/41
f 59/59/41 44/44/26 43/43/25
f 60/60/42 58/58/40 59/59/41
f 57/57/39 58/58/40 60/60/42
f 61/61/43 62/62/44 63/63/43
f 62/62/44 64/64/44 63/63/43
f 64/64/44 62/62/44 65/65/2
f 66/66/2 64/64/44 65/65/2
f 65/65/2 67/67/45 66/66/2
f 67/67/45 68/68/45 66/66/2
f 68/68/45 67/67/45 69/69/46
f 70/70/46 68/68/45 69/69/46
f 69/69/46 71/71/47 70/70/46
f 71/71/47 72/72/47 70/70/46
f 72/72/47 71/71/47 73/73/48
f 74/74/48 72/72/47 73/73/48
f 73/73/48 75/75/49 74/74/48
f 75/75/49 76/76/49 74/74/48
f 76/76/49 75/75/49 77/77/24
f 78/78/24 76/76/49 77/77/24
f 63/63/43 79/79/50 61/61/43
f 80/80/50 79/79/50 81/81/51
f 82/82/51 80/80/50 81/81/51
f 81/81/51 83/83/52 82/82/51
f 83/83/52 84/84/52 82/82/51
f 84/84/52 83/83/52 85/85/24
f 86/86/24 84/84/52 85/85/24
f 79/79/50 80/80/50 61/61/43
